<svg width="700" height="600" xmlns="http://www.w3.org/2000/svg">
 <!-- Created with Method Draw - http://github.com/duopixel/Method-Draw/ -->
 <defs>
  <filter id="svg_6_blur">
   <feGaussianBlur stdDeviation="0"/>
  </filter>
 </defs>
 <g>
  <title>background</title>
  <rect x="-1" y="-1" width="702" height="602" id="canvas_background" fill="#fff"/>
  <g id="canvasGrid" display="none">
   <rect id="svg_7" width="100%" height="100%" x="0" y="0" stroke-width="0" fill="url(#gridpattern)"/>
  </g>
 </g>
 <g>
  <title>Layer 1</title>
  <rect fill="#fff" stroke-width="1.5" x="52.5" y="280" width="223" height="206" id="svg_1" stroke="#000"/>
  <rect fill="#fff" stroke="#000" stroke-width="1.5" stroke-opacity="null" fill-opacity="null" x="108.5" y="33" width="20" height="38" id="svg_2"/>
  <rect fill="#fff" stroke="#000" stroke-width="1.5" stroke-opacity="null" fill-opacity="null" x="117.5" y="36" width="20" height="38" id="svg_3"/>
  <rect fill="#fff" stroke="#000" stroke-width="1.5" stroke-opacity="null" fill-opacity="null" x="129.5" y="40" width="20" height="38" id="svg_4"/>
  <rect fill="#fff" stroke="#000" stroke-width="1.5" stroke-opacity="null" fill-opacity="null" x="140.5" y="44" width="20" height="38" id="svg_5"/>
  <text fill="#000000" stroke-width="1.5" x="33.5" y="62" id="svg_6" font-size="18" font-family="Helvetica, Arial, sans-serif" text-anchor="left" xml:space="preserve" filter="url(#svg_6_blur)" font-weight="bold" stroke="#ffffff">OSM Tracker (Android)</text>
  <text font-weight="normal" fill="#000000" stroke-width="0" stroke-opacity="null" fill-opacity="null" x="76.52978" y="317.81813" id="svg_9" font-size="15" font-family="Helvetica, Arial, sans-serif" text-anchor="left" xml:space="preserve" stroke="#000" transform="matrix(1.03069 0 0 1.57143 -2.26343 -129.714)">OpenStreetmap-Rails</text>
  <rect fill="#fff" stroke="#000" stroke-width="1.5" stroke-opacity="null" fill-opacity="null" x="91.5" y="146" width="61" height="55" id="svg_10"/>
  <rect fill="#fff" stroke="#000" stroke-width="1.5" stroke-opacity="null" fill-opacity="null" x="108.5" y="154" width="61" height="55" id="svg_11"/>
  <rect fill="#fff" stroke="#000" stroke-width="1.5" stroke-opacity="null" fill-opacity="null" x="124.5" y="162" width="61" height="55" id="svg_12"/>
  <rect fill="#fff" stroke="#000" stroke-width="1.5" stroke-opacity="null" fill-opacity="null" x="141.5" y="169" width="61" height="55" id="svg_13"/>
  <text font-weight="bold" fill="#000000" stroke="#fff" stroke-width="1.5" stroke-opacity="null" fill-opacity="null" x="80.5" y="186" id="svg_14" font-size="18" font-family="Helvetica, Arial, sans-serif" text-anchor="left" xml:space="preserve">JOSM (Desktop)</text>
  <rect fill="#fff" stroke="#000" stroke-width="1.5" stroke-opacity="null" fill-opacity="null" x="310.5" y="24" width="61" height="55" id="svg_16"/>
  <rect fill="#fff" stroke="#000" stroke-width="1.5" stroke-opacity="null" fill-opacity="null" x="327.5" y="32" width="61" height="55" id="svg_17"/>
  <rect fill="#fff" stroke="#000" stroke-width="1.5" stroke-opacity="null" fill-opacity="null" x="343.5" y="40" width="61" height="55" id="svg_18"/>
  <rect fill="#fff" stroke="#000" stroke-width="1.5" stroke-opacity="null" fill-opacity="null" x="360.5" y="47" width="61" height="55" id="svg_19"/>
  <text font-weight="bold" fill="#000000" stroke="#fff" stroke-width="1.5" stroke-opacity="null" fill-opacity="null" x="278.5" y="62" id="svg_20" font-size="18" font-family="Helvetica, Arial, sans-serif" text-anchor="left" xml:space="preserve">Browser (gridmaps)</text>
  <text xml:space="preserve" text-anchor="left" font-family="Helvetica, Arial, sans-serif" font-size="15" id="svg_22" y="314" x="75.5" fill-opacity="null" stroke-opacity="null" stroke-width="0" stroke="#000" fill="#000000">API</text>
  <text xml:space="preserve" text-anchor="left" font-family="Helvetica, Arial, sans-serif" font-size="15" id="svg_8" y="314" x="205.5" fill-opacity="null" stroke-opacity="null" stroke-width="0" stroke="#000" fill="#000000">Views</text>
  <ellipse ry="0.5" id="svg_21" cy="380.5" cx="352.5" fill-opacity="null" stroke-opacity="null" stroke-width="1.5" stroke="#000" fill="#fff"/>
  <g id="svg_26">
   <rect stroke="#000" id="svg_24" height="68.95775" width="138.99999" y="449.16901" x="96.49999" fill-opacity="null" stroke-opacity="null" stroke-width="1.5" fill="#fff"/>
   <ellipse stroke="#000" ry="14.19718" rx="69.5" id="svg_15" cy="451.19718" cx="165.99999" fill-opacity="null" stroke-opacity="null" stroke-width="1.5" fill="#fff"/>
   <ellipse stroke="#000" ry="14.19718" rx="69.5" id="svg_23" cy="518.80282" cx="165.99999" fill-opacity="null" stroke-opacity="null" stroke-width="1.5" fill="#fff"/>
   <rect stroke="#fff" id="svg_25" height="35.15493" width="135.4661" y="482.97183" x="98.26694" stroke-width="1.5" fill="#fff"/>
  </g>
  <rect fill="#fff" stroke-width="1.5" x="422.5" y="280" width="223" height="206" id="svg_27" stroke="#000"/>
  <text style="cursor: move;" font-weight="normal" fill="#000000" stroke-width="0" stroke-opacity="null" fill-opacity="null" x="435.51261" y="317.81813" id="svg_28" font-size="15" font-family="Helvetica, Arial, sans-serif" text-anchor="left" xml:space="preserve" stroke="#000" transform="matrix(1.03069 0 0 1.57143 -2.26343 -129.714)">OpenStreetmap-Tiles</text>
  <text xml:space="preserve" text-anchor="left" font-family="Helvetica, Arial, sans-serif" font-size="15" id="svg_29" y="320" x="435.5" fill-opacity="null" stroke-opacity="null" stroke-width="0" stroke="#000" fill="#000000">sync_tile_db</text>
  <g id="svg_35">
   <rect stroke="#000" id="svg_31" height="68.95775" width="138.99999" y="449.16901" x="466.49999" fill-opacity="null" stroke-opacity="null" stroke-width="1.5" fill="#fff"/>
   <ellipse stroke="#000" ry="14.19718" rx="69.5" id="svg_32" cy="451.19718" cx="535.99999" fill-opacity="null" stroke-opacity="null" stroke-width="1.5" fill="#fff"/>
   <ellipse stroke="#000" ry="14.19718" rx="69.5" id="svg_33" cy="518.80282" cx="535.99999" fill-opacity="null" stroke-opacity="null" stroke-width="1.5" fill="#fff"/>
   <rect stroke="#fff" id="svg_34" height="35.15493" width="135.4661" y="482.97183" x="468.26694" stroke-width="1.5" fill="#fff"/>
  </g>
  <path d="m428.5,342c-1,-2 -1,-4 -1,-5c0,-1 -0.29291,-1.29291 -1,-2c-0.70709,-0.70709 -0.61731,-2.07611 -1,-3c-0.5412,-1.30655 -1.29291,-2.29291 -2,-3c-0.70709,-0.70709 -1.82443,-0.0979 -3,-2c-0.52573,-0.85065 -1.4588,-0.69345 -2,-2c-0.38269,-0.92389 -1.29291,-1.29291 -2,-2c-0.70709,-0.70709 -0.61731,-1.07611 -1,-2c-0.5412,-1.30655 -1.69345,-1.4588 -3,-2c-0.92389,-0.38269 -1.29291,-0.29291 -2,-1c-0.70709,-0.70709 -1.29291,-0.29291 -2,-1c-0.70709,-0.70709 -2.186,0.30746 -4,-1c-1.14728,-0.8269 -2,-1 -3,-2c-1,-1 -2.186,-1.69254 -4,-3c-1.14728,-0.8269 -1.0979,-1.82443 -3,-3c-0.85065,-0.52573 -1.82376,-1.48627 -4,-2c-0.97324,-0.22977 -2.29291,-0.29291 -3,-1c-0.70709,-0.70709 -1.0535,-1.5405 -3,-2c-2.17624,-0.51373 -3,-1 -4,-1c-1,0 -2,-1 -3,-1c-1,0 -2,0 -3,0c-1,0 -2,-1 -3,-1c-1,0 -2,0 -3,0c-1,0 -1.69345,-0.4588 -3,-1c-0.92389,-0.38269 -2,0 -3,0c-1,0 -2,0 -3,0c-2,0 -3,0 -4,0c-1,0 -3,0 -4,0c-1,0 -2.02676,0.77023 -3,1c-2.17624,0.51373 -3,1 -4,1c-2,0 -3,1 -4,1c-1,0 -2.07611,-0.38269 -3,0c-1.30655,0.5412 -2,1 -3,1c-1,0 -2,0 -3,0c-1,0 -2,0 -3,0c-2,0 -3,0 -4,0c-1,0 -2,0 -3,0c-1,0 -2,0 -3,0c-1,0 -2,0 -4,0c-1,0 -2,1 -3,1c-1,0 -2,0 -3,0c-1,0 -2.02676,0.77023 -3,1c-2.17624,0.51373 -2,2 -3,2c-1,0 -2.07611,0.61731 -3,1c-1.30655,0.5412 -2.29291,1.29291 -3,2c-0.70709,0.70709 -0.61731,1.07611 -1,2c-0.5412,1.30655 -1.29291,1.29291 -2,2c-0.70709,0.70709 -2.4588,-0.30655 -3,1c-0.38269,0.92389 -1,1 -2,2c-1,1 -2.07611,1.61731 -3,2c-1.30655,0.5412 -1.29291,1.29291 -2,2c-0.70709,0.70709 -1.29291,0.29291 -2,1c-0.70709,0.70709 -0.61731,1.07611 -1,2c-0.5412,1.30655 -1.29291,2.29291 -2,3c-0.70709,0.70709 -0.61731,1.07611 -1,2c-0.5412,1.30655 -1.4588,1.69345 -2,3c-0.38269,0.92389 -0.29291,1.29291 -1,2c-0.70709,0.70709 -1,1 -2,2c-1,1 -1.29291,1.29291 -2,2c-0.70709,0.70709 -1.29291,0.29291 -2,1c-0.70709,0.70709 -1.29291,1.29291 -2,2c-0.70709,0.70709 -0.61731,2.07611 -1,3c-0.5412,1.30655 -1.4588,1.69345 -2,3c-0.38269,0.92389 -1.4588,1.69345 -2,3c-0.38269,0.92389 -1,1 -1,2c0,2 0,3 0,2c0,-1 0,-3 0,-4c0,-1 0,-2 0,-3c0,-1 0,-2 0,-3c0,-1 0,-2 0,-3c0,-1 0,0 0,1c0,1 0,2 0,3c0,1 0.29291,1.29291 1,2c0.70709,0.70709 0,2 0,3c0,1 0.4588,1.69345 1,3c0.38269,0.92389 0.69345,1.4588 2,2c0.92389,0.38269 2,0 3,0c1,0 3,1 3,0c0,-1 -2.07611,-0.61731 -3,-1c-1.30655,-0.5412 -2.4588,-1.69345 -3,-3c-0.38269,-0.92389 -1,-1 -2,-1l-1,0l0,1" id="svg_41" fill-opacity="null" stroke-opacity="null" stroke-width="1.5" stroke="#000" fill="none"/>
  <path d="m260.5,374c0,1 0,2 0,3c0,1 0.29291,1.29291 1,2c0.70709,0.70709 1,2 1,3c0,1 1,2 1,3c0,1 0.29291,1.29291 1,2c1.41422,1.41422 0.77023,3.02676 1,4c0.51373,2.17624 0.61731,3.07611 1,4c0.5412,1.30655 1.07611,1.61731 2,2c1.30655,0.5412 0.61731,2.07611 1,3c0.5412,1.30655 2.4588,2.69345 3,4c0.38269,0.92389 0.07611,1.61731 1,2c1.30655,0.5412 1.29291,2.29291 2,3c0.70709,0.70709 1.61731,1.07611 2,2c0.5412,1.30655 1.29291,1.29291 2,2c0.70709,0.70709 1,1 2,2c1,1 1.85272,1.1731 3,2c1.814,1.30746 3.186,0.69254 5,2c1.14728,0.8269 2.15225,1.23462 4,2c1.30655,0.5412 4.02676,1.77023 5,2c2.17624,0.51373 3,2 5,3c2,1 3.87857,2.49347 7,3c2.96127,0.48056 4.03873,0.51944 7,1c3.12143,0.50653 4.29291,1.29291 5,2c0.70709,0.70709 1.69345,0.4588 3,1c0.92389,0.38269 2,1 3,1c1,0 2,0 4,0c1,0 3.15225,-0.76538 5,0c1.30655,0.5412 2,1 3,1c1,0 2,0 3,0c1,0 2,0 3,0c2,0 3,0 5,0c1,0 3,0 5,0c1,0 2,0 3,0c1,0 3,0 4,0c1,0 3,0 4,0c2,0 4,0 5,0c1,0 2.29291,0.70709 3,0c0.70709,-0.70709 1,-1 2,-1c1,0 2,0 3,0c1,0 1,-1 2,-1c1,0 2.29291,-1.29291 3,-2c1.41422,-1.41422 3,0 4,0c1,0 1.69345,-1.4588 3,-2c0.92389,-0.38269 2.07611,-0.61731 3,-1c1.30655,-0.5412 1.69345,-1.4588 3,-2c0.92389,-0.38269 3.07611,-0.61731 4,-1c1.30655,-0.5412 1.69345,-2.4588 3,-3c0.92389,-0.38269 0.69345,-1.4588 2,-2c0.92389,-0.38269 1.61731,-0.07611 2,-1c0.5412,-1.30655 2.4588,-0.69345 3,-2c0.38269,-0.92389 0.29291,-1.29291 1,-2c0.70709,-0.70709 1.29291,-1.29291 2,-2c0.70709,-0.70709 0.29291,-1.29291 1,-2c0.70709,-0.70709 1.29291,-0.29291 2,-1c0.70709,-0.70709 1,-1 1,-2c0,-1 0.61731,-2.07611 1,-3c0.5412,-1.30655 1.4588,-1.69345 2,-3c0.38269,-0.92389 0,-2 1,-2c1,0 0.61731,-1.07611 1,-2c0.5412,-1.30655 0.61731,-2.07611 1,-3c0.5412,-1.30655 1.4588,-1.69345 2,-3c0.38269,-0.92389 0.29291,-1.29291 1,-2c0.70709,-0.70709 0.29291,-2.29291 1,-3c0.70709,-0.70709 1.4588,-0.69345 2,-2c0.38269,-0.92389 1,-1 1,-2c0,-1 0,-2 0,-3c0,-1 -1.29291,-1.70709 -2,-1c-0.70709,0.70709 -1,1 -2,1c-1,0 -2,1 -3,1c-1,0 -1.29291,0.29291 -2,1c-0.70709,0.70709 -1.29291,0.29291 -2,1c-0.70709,0.70709 -0.29291,1.29291 -1,2c-0.70709,0.70709 -1,1 -1,2c0,1 -0.70709,-0.29291 0,-1c0.70709,-0.70709 1.4588,-0.69345 2,-2c0.38269,-0.92389 1,-1 1,-2c0,-1 1.07611,-0.61731 2,-1c1.30655,-0.5412 1.29291,-1.29291 2,-2c0.70709,-0.70709 1,-1 2,-1c1,0 1.29291,-0.29291 2,-1c0.70709,-0.70709 0.29291,-0.70709 1,0c0.70709,0.70709 2,0 2,1c0,1 1,1 1,2c0,1 -0.70709,2.29291 0,3c0.70709,0.70709 1,1 1,2c0,1 -0.38269,2.07611 0,3c0.5412,1.30655 2,3 2,4c0,1 1,1 1,2c0,1 0.4588,1.69345 1,3c0.38269,0.92389 0,0 0,-1c0,-1 -1.48627,-0.82376 -2,-3c-0.22977,-0.97324 -1.4588,-0.69345 -2,-2c-0.38269,-0.92389 -0.29291,-1.29291 -1,-2c-0.70709,-0.70709 -0.4588,-1.69345 -1,-3c-0.38269,-0.92389 -1,-1 -1,-2l0,-1l0,-1" id="svg_42" fill-opacity="null" stroke-opacity="null" stroke-width="1.5" stroke="#000" fill="none"/>
  <text xml:space="preserve" text-anchor="left" font-family="Helvetica, Arial, sans-serif" font-size="15" id="svg_44" y="367" x="299.5" fill-opacity="null" stroke-opacity="null" stroke-width="0" stroke="#000" fill="#000000">Minutely Sync</text>
  <rect fill="#fff" stroke="#000" stroke-width="1.5" stroke-opacity="null" fill-opacity="null" x="535.5" y="32" width="61" height="55" id="svg_45"/>
  <text font-weight="bold" fill="#000000" stroke="#fff" stroke-width="1.5" stroke-opacity="null" fill-opacity="null" x="497.5" y="62" id="svg_46" font-size="18" font-family="Helvetica, Arial, sans-serif" text-anchor="left" xml:space="preserve">Browser (tile styling)</text>
  <text style="cursor: move;" xml:space="preserve" text-anchor="left" font-family="Helvetica, Arial, sans-serif" font-size="15" id="svg_47" y="410" x="445.5" fill-opacity="null" stroke-opacity="null" stroke-width="0" stroke="#000" fill="#000000">osm2pgsql</text>
  <text xml:space="preserve" text-anchor="left" font-family="Helvetica, Arial, sans-serif" font-size="15" id="svg_48" y="494" x="125.5" fill-opacity="null" stroke-opacity="null" stroke-width="0" stroke="#000" fill="#000000">Postgresql</text>
  <text style="cursor: move;" xml:space="preserve" text-anchor="left" font-family="Helvetica, Arial, sans-serif" font-size="15" id="svg_49" y="494" x="505.5" fill-opacity="null" stroke-opacity="null" stroke-width="0" stroke="#000" fill="#000000">Postgis</text>
  <rect id="svg_50" height="56" width="96" y="286" x="545.5" fill-opacity="null" stroke-opacity="null" stroke-width="1.5" stroke="#000" fill="#fff"/>
  <text xml:space="preserve" text-anchor="left" font-family="Helvetica, Arial, sans-serif" font-size="15" id="svg_51" y="306" x="568.5" fill-opacity="null" stroke-opacity="null" stroke-width="0" stroke="#000" fill="#000000">TileMill</text>
  <path d="m581.5,78c0,-1 -1,-1 -1,-2c0,-1 -0.38269,-2.07612 0,-3c0.5412,-1.30656 1.29291,-1.29289 2,-2c0.70709,-0.70711 0.29291,-2.29289 1,-3c0.70709,-0.70711 2,0 3,0c1,0 2,0 3,0c1,0 2,0 3,0c1,0 2,0 3,0c1,0 2,0 3,0c1,0 0,-1 -1,-1c-1,0 -2,0 -3,0c-2,0 -3,0 -4,0c-1,0 -2.29291,-0.70711 -3,0c-0.70709,0.70711 -0.69342,1.4588 -2,2c-0.92389,0.38268 -2,0 -2,1c0,1 0,2 1,3c1,1 1.29291,1.29289 2,2c0.70709,0.70711 0.61731,1.07612 1,2c0.5412,1.30656 0.69342,2.4588 2,3c0.92389,0.38268 1.29291,0.29289 2,1c0.70709,0.70711 0.69342,1.4588 2,2c0.92389,0.38268 1.29291,0.29289 2,1c0.70709,0.70711 0.61731,1.07612 1,2c0.5412,1.30656 1.29291,2.29289 2,3c0.70709,0.70711 1.29291,1.29289 2,2c0.70709,0.70711 1.61731,1.07612 2,2c0.5412,1.30656 2.07611,1.61732 3,2c1.30658,0.5412 1,2 2,3c1,1 1.29291,1.29289 2,2c0.70709,0.70711 1,1 1,2c0,1 0.29291,1.29289 1,2c0.70709,0.70711 1,2 2,3c1,1 1.29291,1.29289 2,2c0.70709,0.70711 0.4588,1.69344 1,3c0.38269,0.92388 1,2 1,3c0,1 1,2 1,3c0,1 0,2 0,3c0,1 0.4588,1.69344 1,3c0.38269,0.92388 0.29291,2.29289 1,3c0.70709,0.70711 0.61731,1.07613 1,2c0.5412,1.30656 1.29291,1.29289 2,2c0.70709,0.70711 0.61731,2.07613 1,3c0.5412,1.30656 0.61731,2.07613 1,3c0.5412,1.30656 1.29291,1.29289 2,2c0.70709,0.70711 1,2 1,3c0,1 1.4588,1.69344 2,3c0.38269,0.92387 1,2 1,3c0,1 1.4588,1.69344 2,3c0.76538,1.84776 1,4 1,5c0,1 1,1 1,2c0,1 1,2 1,3c0,1 1,1 1,2c0,1 0.48627,1.82375 1,4c0.22974,0.97325 1,2 1,3c0,1 1,2 1,3c0,1 0.61731,1.07613 1,2c0.5412,1.30656 1,2 1,4c0,1 0,2 0,3c0,1 0,2 0,3c0,1 -1,2 -1,3c0,1 -0.4588,1.69344 -1,3c-0.38269,0.92387 0,2 0,3c0,1 0,2 0,3c0,1 0,2 0,3c0,1 0,2 0,3c0,1 0,2 0,3c0,2 0,3 0,4c0,1 0,2 0,3c0,2 0,3 0,4c0,2 1,3 1,4c0,2 0.4588,2.69344 1,4c0.38269,0.92387 0,2 0,3c0,1 0,2 0,3c0,1 0,2 0,3c0,1 0,2 0,3c0,1 0,2 0,3c0,1 0.38269,2.07613 0,3c-0.5412,1.30656 -1,2 -1,3c0,1 0,2 0,3c0,1 -0.4588,1.69344 -1,3c-0.38269,0.92387 0,2 0,3c0,1 0,2 0,3c0,1 0,2 0,3c0,1 0.38269,2.07611 0,3c-0.5412,1.30655 -1,2 -1,3c0,1 -0.29291,1.29291 -1,2c-0.70709,0.70709 -0.29291,1.29291 -1,2c-0.70709,0.70709 0,2 0,3c0,1 -1,2 -1,3c0,1 -1,1 -1,2c0,1 -0.29291,1.29291 -1,2c-0.70709,0.70709 0.70709,2.29291 0,3c-0.70709,0.70709 -1.4588,0.69345 -2,2c-0.38269,0.92389 0.70709,2.29291 0,3c-0.70709,0.70709 -0.29291,1.29291 -1,2c-0.70709,0.70709 -1.29291,0.29291 -2,1c-0.70709,0.70709 -1,1 -1,2c0,1 -0.29291,1.29291 -1,2c-1.41418,1.41422 -1,3 -1,4c0,1 0.70709,2.29291 0,3c-0.70709,0.70709 -2.4588,0.30655 -3,-1c-0.38269,-0.92389 -1,-2 -1,-3c0,-1 0.38269,-2.07611 0,-3c-0.5412,-1.30655 -0.29291,-2.29291 -1,-3c-0.70709,-0.70709 -1,-1 -1,-2c0,-1 0.29291,-0.70709 1,0c0.70709,0.70709 2.29291,-0.70709 3,0c0.70709,0.70709 0.61731,2.07611 1,3c0.5412,1.30655 1,2 1,3c0,1 0,2 0,3c0,1 0,2 0,3c0,1 0,2 0,3c0,1 -0.29291,1.29291 -1,2c-0.70709,0.70709 0.76538,1.84775 0,0c-0.5412,-1.30655 -1,-2 -1,-4c0,-1 -0.30658,-2.4588 1,-3c0.92389,-0.38269 1.07611,-0.61731 2,-1c1.30658,-0.5412 1.29291,-1.29291 2,-2c0.70709,-0.70709 1.69342,-1.4588 3,-2c0.92389,-0.38269 2.29291,-1.29291 3,-2c0.70709,-0.70709 1.07611,-0.61731 2,-1c1.30658,-0.5412 1.07611,-1.61731 2,-2c1.30658,-0.5412 1.29291,-1.29291 2,-2c0.70709,-0.70709 1,-1 0,-1c-1,0 -1.69342,0.4588 -3,1c-0.92389,0.38269 -2.29291,0.29291 -3,1c-0.70709,0.70709 -1.07611,0.61731 -2,1c-1.30658,0.5412 -2.69342,2.4588 -4,3c-0.92389,0.38269 -1.4588,0.69345 -2,2c-0.38269,0.92389 -0.77026,2.02676 -1,3c-0.51373,2.17624 -1,3 -1,4l-1,1l0,1" id="svg_55" fill-opacity="null" stroke-opacity="null" stroke-width="1.5" stroke="#000" fill="none"/>
  <path d="m557.5,290c0,-1 -1.07611,-1.61731 -2,-2c-1.30658,-0.5412 -2.69342,-1.4588 -4,-2c-1.84778,-0.76538 -3,0 -4,0c-1,0 -3,-1 -4,-1c-2,0 -4,-1 -5,-1c-2,0 -4.02673,0.22977 -5,0c-2.17627,-0.51373 -4,-1 -5,-1c-3,0 -6.02246,-0.63345 -9,-1c-4.09222,-0.50378 -7,-1 -10,-2c-3,-1 -6,-1 -10,-2c-4,-1 -6.07843,-1.78986 -9,-3c-2.06586,-0.85571 -4.08026,-1.31073 -7,-2c-2.17624,-0.51373 -3.93414,-1.14429 -6,-2c-2.92157,-1.21014 -5,-2 -7,-3c-2,-1 -3.93414,-2.14429 -6,-3c-2.92157,-1.21014 -6.133,-2.56952 -10,-4c-2.09717,-0.77579 -3.85272,-2.1731 -5,-3c-1.814,-1.30746 -3.186,-1.69254 -5,-3c-1.14728,-0.8269 -1.47427,-1.14935 -2,-2c-1.17557,-1.90211 -2,-2 -3,-3c-1,-1 -2.4588,-1.69344 -3,-3c-0.38269,-0.92387 -0.29291,-1.29289 -1,-2c-0.70709,-0.70711 -1.07611,-1.61731 -2,-2c-1.30655,-0.5412 -1.29291,-1.29289 -2,-2c-0.70709,-0.70711 -0.4588,-1.69344 -1,-3c-0.38269,-0.92387 -0.07611,-1.61731 -1,-2c-1.30655,-0.5412 -1.29291,-1.29289 -2,-2c-0.70709,-0.70711 -0.29291,-1.29289 -1,-2c-0.70709,-0.70711 -1,-1 -2,-2c-1,-1 -1.69345,-2.4588 -3,-3c-0.92389,-0.38269 -1.29291,-0.29289 -2,-1c-0.70709,-0.70711 -1,-1 -2,-2c-1,-1 -2.29291,-0.29289 -3,-1c-0.70709,-0.70711 -0.69345,-2.4588 -2,-3c-0.92389,-0.38269 -2.07611,-0.61731 -3,-1c-1.30655,-0.5412 -2,-2 -3,-3c-1,-1 -2,-1 -4,-3c-1,-1 -2,-2 -3,-3c-1,-1 -1.69254,-1.186 -3,-3c-0.8269,-1.14726 -3.14935,-2.47427 -4,-3c-1.9021,-1.17557 -3,-3 -4,-4c-1,-1 -2.4588,-0.69344 -3,-2c-0.38269,-0.92387 -1.29291,-1.29289 -2,-2c-0.70709,-0.70711 -0.29291,-1.29289 -1,-2c-0.70709,-0.70711 -1.29291,-0.29289 -2,-1c-0.70709,-0.70711 -0.29291,-1.29289 -1,-2c-0.70709,-0.70711 -1,-1 -1,-2c0,-1 -0.29291,-1.29289 -1,-2c-0.70709,-0.70711 0,-2 0,-3c0,-1 0,-2 0,-3c0,-1 0,-2 0,-3c0,-1 0.4588,-1.69344 1,-3c0.38269,-0.92387 0,-2 0,-3c0,-1 1,-3 1,-4c0,-1 -0.38269,-2.07613 0,-3c0.5412,-1.30656 1,-2 1,-3c0,-1 0,-2 0,-3c0,-1 -0.38269,-2.07613 0,-3c0.5412,-1.30656 1,-2 1,-3c0,-1 0,-2 0,-3c0,-1 0,-2 0,-3c0,-1 0,-3 0,-4c0,-1 0,-2 0,-3c0,-1 0,-2 0,-3c0,-1 1,-2 1,-3c0,-1 0,-2 0,-3c0,-1 0,-2 0,-3c0,-1 0.4588,-1.69344 1,-3c0.38269,-0.92388 0,-2 0,-3c0,-1 0.29291,-1.29289 1,-2c0.70709,-0.70711 0,-2 0,-3c0,-1 1,-2 1,-3c0,-1 0.4588,-1.69344 1,-3c0.38269,-0.92388 -0.38269,-2.07612 0,-3c0.5412,-1.30656 1,-2 1,-3c0,-1 -0.70709,-2.29289 0,-3c0.70709,-0.70711 1,-1 1,-2c0,-1 0,-2 0,-3c0,-1 0,-2 0,-3c0,-1 1,-2 1,-3c0,-1 0,-3 0,-4c0,-1 -0.29291,-0.70711 -1,0c-0.70709,0.70711 -1.07611,0.61732 -2,1c-1.30655,0.5412 -2,1 -2,2c0,1 -1.29291,0.29289 -2,1c-0.70709,0.70711 -0.29291,2.29289 -1,3c-0.70709,0.70711 -3,-1 -3,0c0,1 2,0 3,0c1,0 2.07611,0.38268 3,0c1.30655,-0.5412 2,-1 3,-2c1,-1 2.4588,-0.69344 3,-2c0.38269,-0.92388 0,-2 0,-3c0,-1 0.4588,-1.69344 1,-3c0.38269,-0.92388 1.29291,-0.70711 2,0c0.70709,0.70711 1.29291,2.29289 2,3c0.70709,0.70711 1.69345,1.4588 3,2c0.92389,0.38268 2.29291,0.29289 3,1c0.70709,0.70711 1.29291,0.29289 2,1c0.70709,0.70711 1,2 2,2l0,1" id="svg_57" fill-opacity="null" stroke-opacity="null" stroke-width="1.5" stroke="#000" fill="none"/>
  <path d="m239.5,295c0,-1 0,-2 0,-3c0,-1 0,-2 0,-3c0,-1 0,-2 0,-3c0,-1 0.29289,-1.29291 1,-2c0.70711,-0.70709 -0.30656,-2.4588 1,-3c0.92387,-0.38269 1.29289,-0.29291 2,-1c0.70711,-0.70709 0.29289,-1.29291 1,-2c0.70711,-0.70709 3.07613,-1.61731 4,-2c1.30656,-0.5412 0.69344,-2.4588 2,-3c0.92387,-0.38269 1.07613,-0.61731 2,-1c1.30656,-0.5412 2,-1 2,-2c0,-1 1.4588,-0.69345 2,-2c0.38269,-0.92389 1,-1 2,-2c1,-1 1.29291,-1.29291 2,-2c0.70709,-0.70709 0.29291,-2.29291 1,-3c0.70709,-0.70709 0.61731,-1.07611 1,-2c0.5412,-1.30655 1,-2 2,-3c1,-1 1.4588,-1.69344 2,-3c0.38269,-0.92387 0.29291,-1.29289 1,-2c0.70709,-0.70711 0.29291,-1.29289 1,-2c0.70709,-0.70711 0.4588,-1.69344 1,-3c0.38269,-0.92387 0.4588,-1.69344 1,-3c0.38269,-0.92387 0,-2 1,-3c1,-1 1,-2 2,-3c1,-1 1.82443,-1.09789 3,-3c0.52573,-0.85065 1,-1 1,-2c0,-1 0.69345,-1.4588 2,-2c0.92389,-0.38269 2.1731,-0.85274 3,-2c1.30746,-1.814 1.85272,-3.1731 3,-4c1.814,-1.30745 2,-2 3,-3c1,-1 2,-2 4,-3c2,-1 2.186,-1.69255 4,-3c1.14728,-0.8269 1.69345,-2.4588 3,-3c0.92389,-0.38269 1.07611,-0.61731 2,-1c1.30655,-0.5412 2,-1 3,-2c1,-1 3.07611,-1.61731 4,-2c1.30655,-0.5412 1.69345,-2.4588 3,-3c0.92389,-0.38269 3.186,-0.69255 5,-2c1.14728,-0.8269 3.58578,-0.58578 5,-2c1.41422,-1.41422 1.85272,-2.1731 3,-3c1.814,-1.30745 3.29291,-1.29289 4,-2c0.70709,-0.70711 2,-1 3,-2c1,-1 2,-1 3,-2c1,-1 1.69345,-1.4588 3,-2c0.92389,-0.38269 1.07611,-0.61731 2,-1c1.30655,-0.5412 1,-2 2,-2c1,0 0.69345,-1.4588 2,-2c0.92389,-0.38269 2.29291,-0.29289 3,-1c0.70709,-0.70711 0.29291,-1.29289 1,-2c0.70709,-0.70711 1.29291,-0.29289 2,-1c0.70709,-0.70711 1.29291,-0.29289 2,-1c0.70709,-0.70711 1,-1 1,-2c0,-1 1.29291,-0.29289 2,-1c0.70709,-0.70711 0.29291,-2.29289 1,-3c0.70709,-0.70711 2.29291,-0.29289 3,-1c0.70709,-0.70711 1,-2 2,-3c1,-1 2.4588,-1.69344 3,-3c0.38269,-0.92387 0.29291,-1.29289 1,-2c0.70709,-0.70711 2.4588,-0.69344 3,-2c0.38269,-0.92387 1.4588,-1.69344 2,-3c0.38269,-0.92387 0.4588,-1.69344 1,-3c0.38269,-0.92387 0.29291,-1.29289 1,-2c0.70709,-0.70711 -0.70709,-2.29289 0,-3c0.70709,-0.70711 1,-1 1,-2c0,-1 0.29291,-1.29289 1,-2c0.70709,-0.70711 1,-1 1,-2c0,-2 1,-2 1,-3c0,-1 0.4588,-1.69344 1,-3c0.38269,-0.92387 1,-2 1,-3c0,-1 0.29291,-2.29289 1,-3c0.70709,-0.70711 0.29291,-1.29289 1,-2c0.70709,-0.70711 0.29291,-1.29289 1,-2c0.70709,-0.70711 1,-1 1,-3c0,-1 1,-1 1,-2c0,-1 0,-2 0,-3c0,-1 1,-2 1,-3c0,-1 0,-2 0,-3c0,-1 1,-2 1,-3c0,-1 -0.70709,-2.29289 0,-3c0.70709,-0.70711 1,-1 1,-2c0,-1 0.29291,-1.29289 1,-2c0.70709,-0.70711 1,-2 1,-3c0,-1 -0.70709,-2.29289 0,-3c0.70709,-0.70711 1,-1 1,-2c0,-1 0.29291,-1.29289 1,-2c0.70709,-0.70711 0,-2 0,-3c0,-1 0.29291,-1.29289 1,-2c0.70709,-0.70711 1,-1 1,-2c0,-1 0.29291,-1.29289 1,-2c0.70709,-0.70711 0,-2 0,-3c0,-1 0.29291,-1.29289 1,-2c0.70709,-0.70711 -1,0 -2,0c-1,0 -1,1 -2,1c-1,0 -1.07611,0.61732 -2,1c-1.30655,0.5412 -2,1 -2,2c0,1 -0.29291,2.29289 -1,3c-0.70709,0.70711 -0.69345,1.4588 -2,2c-0.92389,0.38268 -0.29291,1.29289 -1,2c-0.70709,0.70711 -2.70709,0.29289 -2,1c0.70709,0.70711 1.29291,-0.29289 2,-1c0.70709,-0.70711 1.69345,-0.4588 3,-1c0.92389,-0.38268 2.29291,-0.29289 3,-1c0.70709,-0.70711 1,-1 1,-2c0,-1 0.29291,-1.29289 1,-2c0.70709,-0.70711 0.69345,-1.4588 2,-2c0.92389,-0.38268 2,0 3,0c1,0 1.29291,0.29289 2,1c0.70709,0.70711 2.4588,0.69344 3,2c0.38269,0.92388 1,2 1,3c0,1 0.29291,1.29289 1,2c0.70709,0.70711 1.29291,0.29289 2,1c0.70709,0.70711 1,1 1,2c0,1 -1,0 -2,-1c-1,-1 -1.07611,-1.61732 -2,-2c-1.30655,-0.5412 -1.29291,-1.29289 -2,-2c-0.70709,-0.70711 -2.29291,0.70711 -3,0c-0.70709,-0.70711 -0.29291,-2.29289 -1,-3c-0.70709,-0.70711 -0.61731,-1.07612 -1,-2c-0.5412,-1.30656 -1,-2 -2,-3l0,-1l0,-1l0,-1" id="svg_58" fill-opacity="null" stroke-opacity="null" stroke-width="1.5" stroke="#000" fill="none"/>
  <path d="m93.5,292c0,1 0.70711,2.29291 0,3c-0.70711,0.70709 -1,1 -1,2c0,1 0,2 0,3c0,1 1,2 2,2c1,0 2,0 3,0c1,0 1.29289,-0.29291 2,-1c0.70711,-0.70709 2.4588,0.30655 3,-1c0.38268,-0.92389 1.07612,-1.61731 2,-2c1.30656,-0.5412 2.29289,-1.29291 3,-2c0.70711,-0.70709 0.29289,-1.29291 1,-2c0.70711,-0.70709 2.07612,0.38269 3,0c1.30656,-0.5412 2.29289,-0.29291 3,-1c0.70711,-0.70709 1,-1 0,-1c-1,0 -3,0 -4,0c-1,0 -2,1 -3,1c-1,0 -1,1 -2,1c-1,0 -1.07612,0.61731 -2,1c-1.30656,0.5412 -1.61732,2.07611 -2,3c-0.5412,1.30655 -1.07612,1.61731 -2,2c-1.30656,0.5412 -1.29289,1.29291 -2,2c-0.70711,0.70709 -1.29289,0.29291 -2,1c-0.70711,0.70709 -0.29289,1.29291 -1,2c-0.70711,0.70709 -2,0 -2,1c0,1 1.61732,-0.07611 2,-1c0.5412,-1.30655 0.29289,-2.29291 1,-3c0.70711,-0.70709 1.4588,-0.69345 2,-2c0.38268,-0.92389 1,-1 1,-2c0,-1 1,-2 1,-3c0,-1 -0.70711,-2.29291 0,-3c0.70711,-0.70709 0.61732,-1.07611 1,-2c0.5412,-1.30655 0.58578,-1.58578 2,-3c0.70711,-0.70709 1.4588,-0.69345 2,-2c0.38268,-0.92389 -0.38268,-2.07611 0,-3c0.5412,-1.30655 1,-2 1,-3c0,-1 1,-2 1,-3c0,-1 0.61732,-2.07611 1,-3c0.5412,-1.30655 1.4588,-1.69345 2,-3c0.38268,-0.92389 1.29289,-1.29291 2,-2c0.70711,-0.70709 0.29289,-1.29291 1,-2c0.70711,-0.70709 0,-2 1,-3c1,-1 0.29289,-2.29291 1,-3c0.70711,-0.70709 0.29289,-1.29291 1,-2c0.70711,-0.70709 1.4588,-0.69345 2,-2c0.38268,-0.92387 1,-2 1,-3c0,-1 1,-1 1,-2c0,-1 0,-2 0,-3c0,-1 -0.38268,-2.07613 0,-3c0.5412,-1.30656 1.4588,-1.69344 2,-3c0.38268,-0.92387 0,-2 1,-3c1,-1 1,-2 1,-3c0,-1 1,-1 1,-2c0,-1 1,-2 1,-3c0,-1 -0.70711,-2.29289 0,-3c0.70711,-0.70711 0.61732,-1.07613 1,-2c0.5412,-1.30656 0.61732,-2.07613 1,-3c0.5412,-1.30656 2,-2 2,-3c0,-1 -0.70711,-2.29289 0,-3c0.70711,-0.70711 1.4588,-0.69344 2,-2c0.38269,-0.92387 0,-2 0,-3c0,-1 1,-1 1,-2c0,-1 0.4588,-1.69344 1,-3c0.38269,-0.92387 0.4588,-1.69344 1,-3c0.38269,-0.92387 0.4588,-1.69344 1,-3c0.38269,-0.92387 -1.07613,-0.38269 -2,0c-1.30656,0.5412 -0.69344,2.4588 -2,3c-0.92387,0.38269 -1.29289,0.29289 -2,1c-0.70711,0.70711 -0.4588,1.69344 -1,3c-0.38269,0.92387 -0.4588,1.69344 -1,3c-0.38268,0.92387 -0.38268,-0.07613 0,-1c0.5412,-1.30656 0.29289,-2.29289 1,-3c0.70711,-0.70711 1.4588,-0.69344 2,-2c0.38269,-0.92387 0.29289,-1.29289 1,-2c0.70711,-0.70711 1.4588,-0.69344 2,-2c0.38269,-0.92387 1,-1 1,-2c0,-1 0,-2 1,-3c1,-1 1,-2 2,-2c1,0 2.29289,-0.70711 3,0c0.70711,0.70711 0.29289,1.29289 1,2c0.70711,0.70711 2,1 2,2c0,1 0.29289,1.29289 1,2c0.70711,0.70711 1,1 1,2c0,1 -0.70711,2.29289 0,3c0.70711,0.70711 1,1 1,2c0,1 0.38269,1.92387 0,1c-0.5412,-1.30656 -0.61731,-2.07613 -1,-3c-0.5412,-1.30656 -2.4588,-1.69344 -3,-3c-0.38269,-0.92387 0,-2 -1,-3c-1,-1 -0.61731,-2.07613 -1,-3c-0.5412,-1.30656 -1.29289,-1.29289 -2,-2c-0.70711,-0.70711 -1,-1 -2,-1c-1,0 -1.29289,0.29289 -2,1c-0.70711,0.70711 -0.61731,2.07613 -1,3c-0.5412,1.30656 -1,2 -1,3c0,1 -0.07613,1.61731 -1,2c-1.30656,0.5412 -0.61731,2.07613 -1,3c-0.5412,1.30656 -0.29289,2.29289 -1,3c-0.70711,0.70711 -2,0 -1,-1c1,-1 1.69344,-2.4588 3,-3c0.92387,-0.38269 0.58578,-1.58578 2,-3c0.70711,-0.70711 1,1 1,3c0,1 -1,2 -1,3c0,1 0,2 -1,3l-1,1l0,1l0,1" id="svg_59" fill-opacity="null" stroke-opacity="null" stroke-width="1.5" stroke="#000" fill="none"/>
  <path d="m132.5,135c0,1 -0.38269,2.07613 0,3c0.5412,1.30656 0.29289,2.29289 1,3c0.70711,0.70711 1.4588,0.69344 2,2c0.38269,0.92387 0.4588,1.69344 1,3c0.38269,0.92387 0.4588,1.69344 1,3c0.38269,0.92387 0,2 1,3c1,1 1.29289,1.29289 2,2c0.70711,0.70711 0.29289,1.29289 1,2c0.70711,0.70711 -0.70711,2.29289 0,3c0.70711,0.70711 2,0 3,-1c1,-1 2.58578,-0.58578 4,-2c0.70711,-0.70711 1.07613,-1.61731 2,-2c1.30656,-0.5412 2.29289,-0.29289 3,-1c0.70711,-0.70711 0.61731,-2.07613 1,-3c0.5412,-1.30656 0.69344,-2.4588 2,-3c0.92387,-0.38269 1.4588,-0.69344 2,-2c0.38269,-0.92387 0,-2 1,-3c1,-1 1.29289,-1.29289 2,-2c0.70711,-0.70711 -0.70711,-2.29289 0,-3c0.70711,-0.70711 1.29289,-0.29289 2,-1c0.70711,-0.70711 0,1 -1,2c-1,1 -1.77025,2.02675 -2,3c-0.51375,2.17625 -2.07613,2.61731 -3,3c-1.30656,0.5412 -1.29289,2.29289 -2,3c-0.70711,0.70711 -1.69255,0.186 -3,2c-0.8269,1.14726 -2.29289,2.29289 -3,3c-0.70711,0.70711 -0.61731,1.07613 -1,2c-0.5412,1.30656 -1,2 -1,3c0,1 -0.29289,2.29289 -1,3c-0.70711,0.70711 -2,0 -2,-1c0,-1 0,-2 0,-3c0,-1 0,-2 0,-3c0,-1 0.4588,-1.69344 1,-3c0.76537,-1.84776 0.4588,-2.69344 1,-4c0.38269,-0.92387 0,-2 0,-3c0,-1 0.4588,-1.69344 1,-3c0.38269,-0.92387 -0.70711,-2.29289 0,-3c0.70711,-0.70711 1,-1 1,-3c0,-1 0,-2 0,-3c0,-2 0.14935,-2.47427 1,-3c1.90211,-1.17557 0.23463,-4.15224 1,-6c0.5412,-1.30656 1,-4 1,-5c0,-2 -0.22975,-3.02675 0,-4c0.51375,-2.17625 0.29289,-3.29289 1,-4c0.70711,-0.70711 1,-1 1,-2c0,-1 0,-2 0,-3c0,-1 0,-2 0,-3c0,-1 0,-2 0,-3c0,-1 0,-2 0,-3c0,-1 0,-2 0,-4c0,-2 -0.4588,-2.69344 -1,-4c-0.38269,-0.92388 0.76537,-2.15224 0,-4c-0.5412,-1.30656 -1,-2 -1,-3c0,-1 0.70711,-2.29289 0,-3c-0.70711,-0.70711 -1.69344,0.4588 -3,1c-0.92387,0.38268 -2.29289,0.29289 -3,1c-0.70711,0.70711 -0.69344,1.4588 -2,2c-0.92387,0.38268 -2.29289,0.29289 -3,1c-0.70711,0.70711 -0.4588,1.69344 -1,3c-0.38269,0.92388 -1,1 -1,2c0,1 -0.29289,1.29289 -1,2c-0.70711,0.70711 -0.29289,1.29289 -1,2c-0.70711,0.70711 0,0 1,-1c1,-1 1.29289,-1.29289 2,-2c0.70711,-0.70711 2,-2 3,-2c1,0 1.29289,-0.29289 2,-1c0.70711,-0.70711 1.29289,-1.29289 2,-2c0.70711,-0.70711 0.29289,-1.29289 1,-2c0.70711,-0.70711 1.4588,-0.69344 2,-2c0.38269,-0.92388 0.29289,-1.29289 1,-2c0.70711,-0.70711 0.29289,-1.29289 1,-2c0.70711,-0.70711 0.29289,-1.29289 1,-2c0.70711,-0.70711 0.69344,-0.5412 2,0c1.84776,0.76537 3.4588,0.69344 4,2c0.38269,0.92388 1.4588,0.69344 2,2c0.38269,0.92388 0.29289,2.29289 1,3c0.70711,0.70711 2.4588,0.69344 3,2c0.38269,0.92388 1.4588,1.69344 2,3c0.38269,0.92388 0.61731,1.07612 1,2c0.5412,1.30656 1.29289,1.29289 2,2c0.70711,0.70711 1,1 1,2c0,1 1.30656,0.5412 0,0c-0.92387,-0.38268 -0.69344,-1.4588 -2,-2c-0.92387,-0.38268 -1.29289,-0.29289 -2,-1c-0.70711,-0.70711 -0.29289,-1.29289 -1,-2c-0.70711,-0.70711 -1.61731,-1.07612 -2,-2c-0.5412,-1.30656 -2,-2 -3,-3c-1,-1 -1.29289,-1.29289 -2,-2c-0.70711,-0.70711 -1.29289,-0.29289 -2,-1c-0.70711,-0.70711 -1,-1 -2,-1l0,-1l0,-1l1,0" id="svg_60" fill-opacity="null" stroke-opacity="null" stroke-width="1.5" stroke="#000" fill="none"/>
 </g>
</svg>
